<?xml version="1.0" encoding="UTF-8" standalone="no"?>
<!DOCTYPE svg PUBLIC "-//W3C//DTD SVG 1.1//EN" "http://www.w3.org/Graphics/SVG/1.1/DTD/svg11.dtd">
<svg width="100%" height="100%" viewBox="0 0 971 319" version="1.1" xmlns="http://www.w3.org/2000/svg" xmlns:xlink="http://www.w3.org/1999/xlink" xml:space="preserve" xmlns:serif="http://www.serif.com/" style="fill-rule:evenodd;clip-rule:evenodd;stroke-linejoin:round;stroke-miterlimit:2;">
    <g transform="matrix(0.416143,0,0,0.416143,-220.726,-160.47)">
        <g>
            <path d="M898.338,409.917C903.944,409.917 906.748,412.487 906.748,417.626L906.748,456.872C906.748,462.011 903.944,464.581 898.338,464.581L748.363,464.581L748.363,903.291C748.363,908.43 745.56,911 739.954,911L696.503,911C690.896,911 688.093,908.43 688.093,903.291L688.093,464.581L538.119,464.581C532.979,464.581 530.41,462.011 530.41,456.872L530.41,417.626C530.41,412.487 532.979,409.917 538.119,409.917L898.338,409.917Z" style="fill:rgb(252,252,252);fill-rule:nonzero;"/>
            <path d="M971.923,911C966.317,911 963.514,908.43 963.514,903.291L963.514,557.088C963.514,551.482 966.317,548.679 971.923,548.679L1013.27,548.679C1018.41,548.679 1020.98,551.482 1020.98,557.088L1020.98,903.291C1020.98,908.43 1018.41,911 1013.27,911L971.923,911Z" style="fill:rgb(252,252,252);fill-rule:nonzero;"/>
            <g transform="matrix(1.16992,0,0,1.16992,367.278,-53.1045)">
                <circle cx="534.5" cy="421.5" r="46.5" style="fill:rgb(184,202,47);"/>
            </g>
            <path d="M1173.06,791.861C1173.06,815.222 1178.78,833.326 1190.23,846.175C1201.67,859.023 1218.38,865.447 1240.34,865.447C1244.07,865.447 1248.98,865.33 1255.05,865.097C1261.13,864.863 1267.43,864.513 1273.98,864.045C1279.58,864.045 1282.38,866.615 1282.38,871.754L1282.38,908.898C1282.38,914.037 1280.05,916.84 1275.38,917.307C1268.84,917.775 1262.06,918.125 1255.05,918.359C1248.05,918.592 1242.2,918.709 1237.53,918.709C1219.78,918.709 1203.54,916.256 1188.83,911.35C1174.11,906.445 1161.26,898.969 1150.28,888.924C1139.3,878.879 1130.78,866.031 1124.7,850.379C1118.63,834.728 1115.59,816.156 1115.59,794.665L1115.59,468.085C1115.59,462.478 1118.39,459.675 1124,459.675L1160.44,459.675C1164.65,459.675 1167.22,462.245 1168.15,467.384L1173.06,552.183L1264.16,552.183C1269.3,552.183 1271.87,554.752 1271.87,559.892L1271.87,594.932C1271.87,600.539 1269.3,603.342 1264.16,603.342L1173.06,603.342L1173.06,791.861Z" style="fill:rgb(252,252,252);fill-rule:nonzero;"/>
            <path d="M1337.05,577.412C1353.4,566.199 1372.79,557.322 1395.22,550.781C1417.64,544.24 1442.4,540.97 1469.5,540.97C1512.95,540.97 1547.06,552.299 1571.82,574.959C1596.58,597.619 1608.96,631.608 1608.96,676.928L1608.96,887.172C1608.96,891.844 1606.86,894.881 1602.66,896.283C1586.31,902.357 1566.33,907.613 1542.74,912.051C1519.14,916.49 1494.03,918.709 1467.4,918.709C1447.78,918.709 1428.86,916.607 1410.63,912.402C1392.41,908.197 1376.41,901.539 1362.63,892.428C1348.85,883.318 1337.75,871.521 1329.34,857.037C1320.93,842.554 1316.73,824.8 1316.73,803.775C1316.73,785.087 1320.35,768.851 1327.59,755.069C1334.83,741.286 1345.11,729.722 1358.42,720.378C1371.74,711.034 1387.62,704.026 1406.08,699.354C1424.53,694.682 1444.97,692.346 1467.4,692.346C1481.88,692.346 1496.48,693.163 1511.2,694.798C1525.92,696.434 1539.35,698.419 1551.5,700.755L1551.5,678.329C1551.5,649.83 1545.19,628.455 1532.58,614.205C1519.96,599.955 1498.24,592.83 1467.4,592.83C1447.78,592.83 1429.32,595.283 1412.04,600.188C1394.75,605.094 1380.03,611.285 1367.88,618.76C1363.68,621.563 1360.17,620.862 1357.37,616.658L1337.05,587.223C1334.71,583.018 1334.71,579.748 1337.05,577.412ZM1374.19,803.775C1374.19,824.8 1382.95,840.685 1400.47,851.431C1417.99,862.177 1440.3,867.549 1467.4,867.549C1483.29,867.549 1498.59,866.265 1513.3,863.695C1528.02,861.125 1540.75,858.205 1551.5,854.935L1551.5,749.812C1540.29,747.476 1527.09,745.491 1511.9,743.856C1496.72,742.22 1481.88,741.403 1467.4,741.403C1435.16,741.403 1411.57,746.892 1396.62,757.872C1381.67,768.851 1374.19,784.152 1374.19,803.775Z" style="fill:rgb(252,252,252);fill-rule:nonzero;"/>
            <path d="M1707.78,911C1702.64,911 1700.07,908.43 1700.07,903.291L1700.07,578.113C1700.07,573.441 1701.94,570.17 1705.68,568.301C1725.77,559.892 1747.14,553.234 1769.8,548.328C1792.46,543.422 1815.94,540.97 1840.23,540.97C1863.59,540.97 1884.97,543.773 1904.36,549.379C1923.75,554.986 1940.33,563.98 1954.12,576.361C1967.9,588.742 1978.64,604.51 1986.35,623.666C1994.06,642.821 1997.92,665.715 1997.92,692.346L1997.92,903.291C1997.92,908.43 1995.11,911 1989.51,911L1948.16,911C1943.02,911 1940.45,908.43 1940.45,903.291L1940.45,693.747C1940.45,657.305 1931.69,631.375 1914.17,615.957C1896.65,600.539 1872,592.83 1840.23,592.83C1825.28,592.83 1810.45,593.998 1795.73,596.334C1781.02,598.67 1768.28,601.707 1757.54,605.445L1757.54,903.291C1757.54,908.43 1754.73,911 1749.13,911L1707.78,911Z" style="fill:rgb(252,252,252);fill-rule:nonzero;"/>
            <path d="M2099.53,911C2093.93,911 2091.12,908.43 2091.12,903.291L2091.12,557.088C2091.12,551.482 2093.93,548.679 2099.53,548.679L2140.88,548.679C2146.02,548.679 2148.59,551.482 2148.59,557.088L2148.59,903.291C2148.59,908.43 2146.02,911 2140.88,911L2099.53,911Z" style="fill:rgb(252,252,252);fill-rule:nonzero;"/>
            <g transform="matrix(1.16992,0,0,1.16992,1494.89,-53.1045)">
                <circle cx="534.5" cy="421.5" r="46.5" style="fill:rgb(184,202,47);"/>
            </g>
            <path d="M2226.38,911C2221.24,911 2218.67,908.43 2218.67,903.291L2218.67,882.267C2218.67,878.062 2219.84,874.791 2222.18,872.455L2417,600.539L2236.89,600.539C2231.76,600.539 2229.19,597.736 2229.19,592.129L2229.19,557.088C2229.19,551.482 2231.76,548.679 2236.89,548.679L2488.49,548.679C2494.09,548.679 2496.9,551.482 2496.9,557.088L2496.9,576.01C2496.9,579.281 2495.73,582.551 2493.39,585.822L2297.16,859.84L2492.69,859.84C2497.83,859.84 2500.4,862.41 2500.4,867.549L2500.4,903.291C2500.4,908.43 2497.83,911 2492.69,911L2226.38,911Z" style="fill:rgb(252,252,252);fill-rule:nonzero;"/>
            <path d="M2862.72,781.349C2862.72,801.906 2859.1,820.595 2851.86,837.414C2844.62,854.234 2834.34,868.717 2821.02,880.865C2807.71,893.012 2791.59,902.357 2772.67,908.898C2753.75,915.438 2732.37,918.709 2708.54,918.709C2684.72,918.709 2663.34,915.438 2644.42,908.898C2625.5,902.357 2609.38,893.012 2596.06,880.865C2582.75,868.717 2572.47,854.234 2565.23,837.414C2557.99,820.595 2554.36,801.906 2554.36,781.349L2554.36,680.432C2554.36,659.875 2557.99,641.069 2565.23,624.016C2572.47,606.963 2582.75,592.246 2596.06,579.865C2609.38,567.484 2625.5,557.906 2644.42,551.131C2663.34,544.357 2684.72,540.97 2708.54,540.97C2732.37,540.97 2753.75,544.357 2772.67,551.131C2791.59,557.906 2807.71,567.484 2821.02,579.865C2834.34,592.246 2844.62,606.963 2851.86,624.016C2859.1,641.069 2862.72,659.875 2862.72,680.432L2862.72,781.349ZM2612.53,781.349C2612.53,807.98 2620.71,829.005 2637.06,844.423C2653.41,859.84 2677.24,867.549 2708.54,867.549C2740.31,867.549 2764.38,859.84 2780.73,844.423C2797.08,829.005 2805.26,807.98 2805.26,781.349L2805.26,680.432C2805.26,653.801 2797.08,632.543 2780.73,616.658C2764.38,600.772 2740.31,592.83 2708.54,592.83C2677.24,592.83 2653.41,600.772 2637.06,616.658C2620.71,632.543 2612.53,653.801 2612.53,680.432L2612.53,781.349Z" style="fill:rgb(252,252,252);fill-rule:nonzero;"/>
        </g>
    </g>
    <g transform="matrix(0.699332,0,0,0.699332,-398.158,-354.279)">
        <g transform="matrix(97.3132,0,0,97.3132,1461,942)">
            <path d="M0.102,-0C0.097,-0 0.094,-0.003 0.094,-0.008L0.094,-0.707C0.094,-0.712 0.097,-0.715 0.102,-0.715L0.342,-0.715C0.381,-0.715 0.416,-0.709 0.447,-0.698C0.478,-0.687 0.505,-0.67 0.527,-0.649C0.548,-0.627 0.565,-0.6 0.577,-0.569C0.588,-0.538 0.594,-0.502 0.594,-0.463L0.594,-0.249C0.594,-0.21 0.588,-0.174 0.577,-0.143C0.565,-0.113 0.548,-0.086 0.526,-0.065C0.504,-0.044 0.477,-0.028 0.447,-0.017C0.416,-0.006 0.381,-0 0.342,-0L0.102,-0ZM0.149,-0.052L0.342,-0.052C0.404,-0.052 0.452,-0.069 0.486,-0.102C0.52,-0.135 0.537,-0.184 0.537,-0.249L0.537,-0.462C0.537,-0.527 0.52,-0.576 0.486,-0.611C0.452,-0.646 0.404,-0.663 0.342,-0.663L0.149,-0.663L0.149,-0.052Z" style="fill:white;fill-rule:nonzero;"/>
        </g>
        <g transform="matrix(97.3132,0,0,97.3132,1525.52,942)">
            <path d="M0.481,-0.181C0.481,-0.153 0.476,-0.127 0.467,-0.104C0.458,-0.081 0.444,-0.061 0.426,-0.043C0.407,-0.027 0.385,-0.013 0.359,-0.004C0.332,0.006 0.302,0.011 0.268,0.011C0.234,0.011 0.204,0.006 0.178,-0.004C0.151,-0.013 0.129,-0.027 0.111,-0.043C0.093,-0.061 0.079,-0.081 0.07,-0.104C0.06,-0.127 0.055,-0.153 0.055,-0.181L0.055,-0.333C0.055,-0.36 0.06,-0.386 0.07,-0.409C0.079,-0.433 0.093,-0.454 0.111,-0.471C0.129,-0.488 0.151,-0.502 0.178,-0.511C0.204,-0.521 0.234,-0.526 0.268,-0.526C0.302,-0.526 0.332,-0.521 0.359,-0.511C0.385,-0.502 0.407,-0.488 0.426,-0.471C0.444,-0.454 0.458,-0.433 0.467,-0.409C0.476,-0.386 0.481,-0.36 0.481,-0.333L0.481,-0.181ZM0.109,-0.182C0.109,-0.14 0.122,-0.105 0.149,-0.078C0.176,-0.051 0.215,-0.038 0.268,-0.038C0.321,-0.038 0.361,-0.052 0.388,-0.079C0.415,-0.106 0.428,-0.14 0.428,-0.182L0.428,-0.333C0.428,-0.375 0.415,-0.409 0.388,-0.436C0.361,-0.463 0.321,-0.477 0.268,-0.477C0.215,-0.477 0.176,-0.464 0.149,-0.437C0.122,-0.41 0.109,-0.375 0.109,-0.333L0.109,-0.182Z" style="fill:white;fill-rule:nonzero;"/>
        </g>
        <g transform="matrix(97.3132,0,0,97.3132,1577.68,942)">
            <path d="M0.383,-0.476C0.406,-0.491 0.431,-0.503 0.456,-0.513C0.481,-0.522 0.509,-0.526 0.54,-0.526C0.6,-0.526 0.648,-0.509 0.685,-0.475C0.722,-0.442 0.74,-0.393 0.74,-0.33L0.74,-0.008C0.74,-0.003 0.737,-0 0.731,-0L0.695,-0C0.69,-0 0.687,-0.003 0.687,-0.008L0.687,-0.331C0.687,-0.377 0.674,-0.413 0.649,-0.439C0.624,-0.464 0.587,-0.477 0.539,-0.477C0.514,-0.477 0.49,-0.473 0.469,-0.466C0.447,-0.458 0.428,-0.448 0.411,-0.437C0.418,-0.422 0.424,-0.406 0.429,-0.389C0.433,-0.371 0.435,-0.352 0.435,-0.33L0.435,-0.008C0.435,-0.003 0.432,-0 0.426,-0L0.39,-0C0.385,-0 0.382,-0.003 0.382,-0.008L0.382,-0.331C0.382,-0.377 0.371,-0.413 0.349,-0.439C0.328,-0.464 0.293,-0.477 0.245,-0.477C0.222,-0.477 0.2,-0.475 0.181,-0.47C0.162,-0.465 0.143,-0.459 0.125,-0.452L0.125,-0.008C0.125,-0.003 0.122,-0 0.117,-0L0.081,-0C0.075,-0 0.072,-0.003 0.072,-0.008L0.072,-0.477C0.072,-0.482 0.074,-0.486 0.079,-0.488C0.104,-0.499 0.131,-0.508 0.158,-0.516C0.185,-0.523 0.214,-0.526 0.244,-0.526C0.275,-0.526 0.301,-0.522 0.324,-0.513C0.347,-0.504 0.366,-0.492 0.383,-0.476Z" style="fill:white;fill-rule:nonzero;"/>
        </g>
        <g transform="matrix(97.3132,0,0,97.3132,1678.98,942)">
            <path d="M0.082,-0C0.077,-0 0.074,-0.003 0.074,-0.008L0.074,-0.506C0.074,-0.512 0.077,-0.515 0.082,-0.515L0.119,-0.515C0.124,-0.515 0.127,-0.512 0.127,-0.506L0.127,-0.008C0.127,-0.003 0.124,-0 0.119,-0L0.082,-0ZM0.136,-0.656C0.136,-0.646 0.133,-0.638 0.126,-0.631C0.119,-0.624 0.111,-0.621 0.101,-0.621C0.09,-0.621 0.082,-0.624 0.075,-0.631C0.068,-0.638 0.065,-0.646 0.065,-0.656C0.065,-0.667 0.068,-0.675 0.075,-0.682C0.082,-0.689 0.09,-0.692 0.101,-0.692C0.111,-0.692 0.119,-0.689 0.126,-0.682C0.133,-0.675 0.136,-0.667 0.136,-0.656Z" style="fill:white;fill-rule:nonzero;"/>
        </g>
        <g transform="matrix(97.3132,0,0,97.3132,1721.12,942)">
            <path d="M0.481,-0.181C0.481,-0.153 0.476,-0.127 0.467,-0.104C0.458,-0.081 0.444,-0.061 0.426,-0.043C0.407,-0.027 0.385,-0.013 0.359,-0.004C0.332,0.006 0.302,0.011 0.268,0.011C0.234,0.011 0.204,0.006 0.178,-0.004C0.151,-0.013 0.129,-0.027 0.111,-0.043C0.093,-0.061 0.079,-0.081 0.07,-0.104C0.06,-0.127 0.055,-0.153 0.055,-0.181L0.055,-0.333C0.055,-0.36 0.06,-0.386 0.07,-0.409C0.079,-0.433 0.093,-0.454 0.111,-0.471C0.129,-0.488 0.151,-0.502 0.178,-0.511C0.204,-0.521 0.234,-0.526 0.268,-0.526C0.302,-0.526 0.332,-0.521 0.359,-0.511C0.385,-0.502 0.407,-0.488 0.426,-0.471C0.444,-0.454 0.458,-0.433 0.467,-0.409C0.476,-0.386 0.481,-0.36 0.481,-0.333L0.481,-0.181ZM0.109,-0.182C0.109,-0.14 0.122,-0.105 0.149,-0.078C0.176,-0.051 0.215,-0.038 0.268,-0.038C0.321,-0.038 0.361,-0.052 0.388,-0.079C0.415,-0.106 0.428,-0.14 0.428,-0.182L0.428,-0.333C0.428,-0.375 0.415,-0.409 0.388,-0.436C0.361,-0.463 0.321,-0.477 0.268,-0.477C0.215,-0.477 0.176,-0.464 0.149,-0.437C0.122,-0.41 0.109,-0.375 0.109,-0.333L0.109,-0.182Z" style="fill:white;fill-rule:nonzero;"/>
        </g>
        <g transform="matrix(97.3132,0,0,97.3132,1773.28,942)">
            <path d="M0.463,0.003C0.463,0.032 0.459,0.059 0.452,0.083C0.444,0.107 0.432,0.128 0.415,0.145C0.398,0.162 0.377,0.176 0.352,0.185C0.327,0.195 0.296,0.2 0.261,0.2C0.222,0.2 0.187,0.193 0.156,0.18C0.125,0.166 0.097,0.148 0.071,0.124C0.067,0.121 0.067,0.117 0.07,0.112L0.088,0.086C0.091,0.081 0.095,0.081 0.099,0.085C0.121,0.104 0.145,0.12 0.171,0.132C0.197,0.145 0.227,0.151 0.261,0.151C0.313,0.151 0.351,0.138 0.375,0.112C0.399,0.085 0.411,0.048 0.41,-0.001L0.41,-0.051C0.389,-0.041 0.366,-0.033 0.341,-0.027C0.316,-0.021 0.291,-0.018 0.267,-0.018C0.236,-0.018 0.207,-0.022 0.181,-0.031C0.154,-0.039 0.132,-0.051 0.113,-0.068C0.094,-0.085 0.08,-0.106 0.07,-0.131C0.059,-0.156 0.054,-0.185 0.054,-0.219L0.054,-0.324C0.054,-0.36 0.059,-0.391 0.07,-0.416C0.081,-0.441 0.096,-0.462 0.115,-0.478C0.134,-0.495 0.157,-0.507 0.184,-0.515C0.211,-0.522 0.24,-0.526 0.271,-0.526C0.303,-0.526 0.336,-0.523 0.369,-0.516C0.402,-0.509 0.431,-0.5 0.456,-0.489C0.461,-0.487 0.463,-0.484 0.463,-0.479L0.463,0.003ZM0.108,-0.22C0.108,-0.165 0.123,-0.126 0.153,-0.102C0.182,-0.079 0.221,-0.067 0.27,-0.067C0.295,-0.067 0.32,-0.07 0.345,-0.076C0.37,-0.083 0.391,-0.091 0.41,-0.102L0.41,-0.455C0.391,-0.462 0.369,-0.467 0.343,-0.471C0.316,-0.475 0.292,-0.477 0.27,-0.477C0.219,-0.477 0.18,-0.465 0.151,-0.441C0.122,-0.417 0.108,-0.378 0.108,-0.324L0.108,-0.22Z" style="fill:white;fill-rule:nonzero;"/>
        </g>
        <g transform="matrix(97.3132,0,0,97.3132,1825.44,942)">
            <path d="M0.081,-0C0.075,-0 0.072,-0.003 0.072,-0.008L0.072,-0.48C0.072,-0.485 0.074,-0.488 0.079,-0.49C0.104,-0.501 0.131,-0.51 0.16,-0.517C0.189,-0.523 0.219,-0.526 0.248,-0.526C0.265,-0.526 0.281,-0.525 0.299,-0.524C0.316,-0.522 0.333,-0.52 0.35,-0.517C0.355,-0.516 0.358,-0.513 0.358,-0.508L0.358,-0.476C0.358,-0.47 0.355,-0.468 0.349,-0.469C0.334,-0.472 0.318,-0.474 0.302,-0.475C0.285,-0.476 0.269,-0.477 0.254,-0.477C0.231,-0.477 0.208,-0.475 0.186,-0.471C0.163,-0.466 0.143,-0.46 0.125,-0.453L0.125,-0.008C0.125,-0.003 0.122,-0 0.117,-0L0.081,-0Z" style="fill:white;fill-rule:nonzero;"/>
        </g>
        <g transform="matrix(97.3132,0,0,97.3132,1859.89,942)">
            <path d="M0.481,-0.181C0.481,-0.153 0.476,-0.127 0.467,-0.104C0.458,-0.081 0.444,-0.061 0.426,-0.043C0.407,-0.027 0.385,-0.013 0.359,-0.004C0.332,0.006 0.302,0.011 0.268,0.011C0.234,0.011 0.204,0.006 0.178,-0.004C0.151,-0.013 0.129,-0.027 0.111,-0.043C0.093,-0.061 0.079,-0.081 0.07,-0.104C0.06,-0.127 0.055,-0.153 0.055,-0.181L0.055,-0.333C0.055,-0.36 0.06,-0.386 0.07,-0.409C0.079,-0.433 0.093,-0.454 0.111,-0.471C0.129,-0.488 0.151,-0.502 0.178,-0.511C0.204,-0.521 0.234,-0.526 0.268,-0.526C0.302,-0.526 0.332,-0.521 0.359,-0.511C0.385,-0.502 0.407,-0.488 0.426,-0.471C0.444,-0.454 0.458,-0.433 0.467,-0.409C0.476,-0.386 0.481,-0.36 0.481,-0.333L0.481,-0.181ZM0.109,-0.182C0.109,-0.14 0.122,-0.105 0.149,-0.078C0.176,-0.051 0.215,-0.038 0.268,-0.038C0.321,-0.038 0.361,-0.052 0.388,-0.079C0.415,-0.106 0.428,-0.14 0.428,-0.182L0.428,-0.333C0.428,-0.375 0.415,-0.409 0.388,-0.436C0.361,-0.463 0.321,-0.477 0.268,-0.477C0.215,-0.477 0.176,-0.464 0.149,-0.437C0.122,-0.41 0.109,-0.375 0.109,-0.333L0.109,-0.182ZM0.222,-0.598C0.219,-0.598 0.216,-0.599 0.215,-0.601C0.213,-0.603 0.213,-0.606 0.215,-0.609L0.297,-0.742C0.299,-0.745 0.302,-0.747 0.307,-0.747L0.348,-0.747C0.356,-0.747 0.358,-0.744 0.353,-0.737L0.26,-0.604C0.258,-0.6 0.255,-0.598 0.25,-0.598L0.222,-0.598Z" style="fill:white;fill-rule:nonzero;"/>
        </g>
        <g transform="matrix(97.3132,0,0,97.3132,1912.05,942)">
            <path d="M0.411,-0.707C0.411,-0.712 0.414,-0.715 0.419,-0.715L0.455,-0.715C0.461,-0.715 0.464,-0.712 0.464,-0.707L0.464,-0.034C0.464,-0.029 0.462,-0.026 0.457,-0.025C0.429,-0.014 0.399,-0.005 0.367,0.001C0.335,0.008 0.303,0.011 0.271,0.011C0.238,0.011 0.209,0.007 0.182,-0.002C0.155,-0.01 0.133,-0.023 0.114,-0.041C0.095,-0.058 0.08,-0.081 0.07,-0.108C0.059,-0.135 0.054,-0.167 0.054,-0.204L0.054,-0.312C0.054,-0.383 0.073,-0.436 0.112,-0.472C0.151,-0.508 0.202,-0.526 0.267,-0.526C0.294,-0.526 0.32,-0.522 0.344,-0.515C0.369,-0.508 0.391,-0.498 0.411,-0.486L0.411,-0.707ZM0.108,-0.204C0.108,-0.145 0.122,-0.102 0.151,-0.076C0.18,-0.051 0.22,-0.038 0.272,-0.038C0.297,-0.038 0.322,-0.04 0.346,-0.044C0.37,-0.048 0.392,-0.054 0.411,-0.061L0.411,-0.434C0.392,-0.447 0.37,-0.458 0.346,-0.466C0.322,-0.473 0.297,-0.477 0.271,-0.477C0.219,-0.477 0.179,-0.464 0.151,-0.438C0.122,-0.412 0.108,-0.37 0.108,-0.312L0.108,-0.204Z" style="fill:white;fill-rule:nonzero;"/>
        </g>
    </g>
</svg>
