<?xml version="1.0" encoding="UTF-8" standalone="no"?>
<!DOCTYPE svg PUBLIC "-//W3C//DTD SVG 1.1//EN" "http://www.w3.org/Graphics/SVG/1.1/DTD/svg11.dtd">
<svg width="100%" height="100%" viewBox="0 0 971 222" version="1.1" xmlns="http://www.w3.org/2000/svg" xmlns:xlink="http://www.w3.org/1999/xlink" xml:space="preserve" xmlns:serif="http://www.serif.com/" style="fill-rule:evenodd;clip-rule:evenodd;stroke-linejoin:round;stroke-miterlimit:2;">
    <g transform="matrix(0.416143,0,0,0.416143,-220.726,-160.47)">
        <g>
            <path d="M898.338,409.917C903.944,409.917 906.748,412.487 906.748,417.626L906.748,456.872C906.748,462.011 903.944,464.581 898.338,464.581L748.363,464.581L748.363,903.291C748.363,908.43 745.56,911 739.954,911L696.503,911C690.896,911 688.093,908.43 688.093,903.291L688.093,464.581L538.119,464.581C532.979,464.581 530.41,462.011 530.41,456.872L530.41,417.626C530.41,412.487 532.979,409.917 538.119,409.917L898.338,409.917Z" style="fill:white;fill-rule:nonzero;"/>
            <path d="M971.923,911C966.317,911 963.514,908.43 963.514,903.291L963.514,557.088C963.514,551.482 966.317,548.679 971.923,548.679L1013.27,548.679C1018.41,548.679 1020.98,551.482 1020.98,557.088L1020.98,903.291C1020.98,908.43 1018.41,911 1013.27,911L971.923,911Z" style="fill:white;fill-rule:nonzero;"/>
            <g transform="matrix(1.16992,0,0,1.16992,367.278,-53.1045)">
                <circle cx="534.5" cy="421.5" r="46.5" style="fill:rgb(255,56,92);"/>
            </g>
            <path d="M1173.06,791.861C1173.06,815.222 1178.78,833.326 1190.23,846.175C1201.67,859.023 1218.38,865.447 1240.34,865.447C1244.07,865.447 1248.98,865.33 1255.05,865.097C1261.13,864.863 1267.43,864.513 1273.98,864.045C1279.58,864.045 1282.38,866.615 1282.38,871.754L1282.38,908.898C1282.38,914.037 1280.05,916.84 1275.38,917.307C1268.84,917.775 1262.06,918.125 1255.05,918.359C1248.05,918.592 1242.2,918.709 1237.53,918.709C1219.78,918.709 1203.54,916.256 1188.83,911.35C1174.11,906.445 1161.26,898.969 1150.28,888.924C1139.3,878.879 1130.78,866.031 1124.7,850.379C1118.63,834.728 1115.59,816.156 1115.59,794.665L1115.59,468.085C1115.59,462.478 1118.39,459.675 1124,459.675L1160.44,459.675C1164.65,459.675 1167.22,462.245 1168.15,467.384L1173.06,552.183L1264.16,552.183C1269.3,552.183 1271.87,554.752 1271.87,559.892L1271.87,594.932C1271.87,600.539 1269.3,603.342 1264.16,603.342L1173.06,603.342L1173.06,791.861Z" style="fill:white;fill-rule:nonzero;"/>
            <path d="M1337.05,577.412C1353.4,566.199 1372.79,557.322 1395.22,550.781C1417.64,544.24 1442.4,540.97 1469.5,540.97C1512.95,540.97 1547.06,552.299 1571.82,574.959C1596.58,597.619 1608.96,631.608 1608.96,676.928L1608.96,887.172C1608.96,891.844 1606.86,894.881 1602.66,896.283C1586.31,902.357 1566.33,907.613 1542.74,912.051C1519.14,916.49 1494.03,918.709 1467.4,918.709C1447.78,918.709 1428.86,916.607 1410.63,912.402C1392.41,908.197 1376.41,901.539 1362.63,892.428C1348.85,883.318 1337.75,871.521 1329.34,857.037C1320.93,842.554 1316.73,824.8 1316.73,803.775C1316.73,785.087 1320.35,768.851 1327.59,755.069C1334.83,741.286 1345.11,729.722 1358.42,720.378C1371.74,711.034 1387.62,704.026 1406.08,699.354C1424.53,694.682 1444.97,692.346 1467.4,692.346C1481.88,692.346 1496.48,693.163 1511.2,694.798C1525.92,696.434 1539.35,698.419 1551.5,700.755L1551.5,678.329C1551.5,649.83 1545.19,628.455 1532.58,614.205C1519.96,599.955 1498.24,592.83 1467.4,592.83C1447.78,592.83 1429.32,595.283 1412.04,600.188C1394.75,605.094 1380.03,611.285 1367.88,618.76C1363.68,621.563 1360.17,620.862 1357.37,616.658L1337.05,587.223C1334.71,583.018 1334.71,579.748 1337.05,577.412ZM1374.19,803.775C1374.19,824.8 1382.95,840.685 1400.47,851.431C1417.99,862.177 1440.3,867.549 1467.4,867.549C1483.29,867.549 1498.59,866.265 1513.3,863.695C1528.02,861.125 1540.75,858.205 1551.5,854.935L1551.5,749.812C1540.29,747.476 1527.09,745.491 1511.9,743.856C1496.72,742.22 1481.88,741.403 1467.4,741.403C1435.16,741.403 1411.57,746.892 1396.62,757.872C1381.67,768.851 1374.19,784.152 1374.19,803.775Z" style="fill:white;fill-rule:nonzero;"/>
            <path d="M1707.78,911C1702.64,911 1700.07,908.43 1700.07,903.291L1700.07,578.113C1700.07,573.441 1701.94,570.17 1705.68,568.301C1725.77,559.892 1747.14,553.234 1769.8,548.328C1792.46,543.422 1815.94,540.97 1840.23,540.97C1863.59,540.97 1884.97,543.773 1904.36,549.379C1923.75,554.986 1940.33,563.98 1954.12,576.361C1967.9,588.742 1978.64,604.51 1986.35,623.666C1994.06,642.821 1997.92,665.715 1997.92,692.346L1997.92,903.291C1997.92,908.43 1995.11,911 1989.51,911L1948.16,911C1943.02,911 1940.45,908.43 1940.45,903.291L1940.45,693.747C1940.45,657.305 1931.69,631.375 1914.17,615.957C1896.65,600.539 1872,592.83 1840.23,592.83C1825.28,592.83 1810.45,593.998 1795.73,596.334C1781.02,598.67 1768.28,601.707 1757.54,605.445L1757.54,903.291C1757.54,908.43 1754.73,911 1749.13,911L1707.78,911Z" style="fill:white;fill-rule:nonzero;"/>
            <path d="M2099.53,911C2093.93,911 2091.12,908.43 2091.12,903.291L2091.12,557.088C2091.12,551.482 2093.93,548.679 2099.53,548.679L2140.88,548.679C2146.02,548.679 2148.59,551.482 2148.59,557.088L2148.59,903.291C2148.59,908.43 2146.02,911 2140.88,911L2099.53,911Z" style="fill:white;fill-rule:nonzero;"/>
            <g transform="matrix(1.16992,0,0,1.16992,1494.89,-53.1045)">
                <circle cx="534.5" cy="421.5" r="46.5" style="fill:rgb(255,56,92);"/>
            </g>
            <path d="M2226.38,911C2221.24,911 2218.67,908.43 2218.67,903.291L2218.67,882.267C2218.67,878.062 2219.84,874.791 2222.18,872.455L2417,600.539L2236.89,600.539C2231.76,600.539 2229.19,597.736 2229.19,592.129L2229.19,557.088C2229.19,551.482 2231.76,548.679 2236.89,548.679L2488.49,548.679C2494.09,548.679 2496.9,551.482 2496.9,557.088L2496.9,576.01C2496.9,579.281 2495.73,582.551 2493.39,585.822L2297.16,859.84L2492.69,859.84C2497.83,859.84 2500.4,862.41 2500.4,867.549L2500.4,903.291C2500.4,908.43 2497.83,911 2492.69,911L2226.38,911Z" style="fill:white;fill-rule:nonzero;"/>
            <path d="M2862.72,781.349C2862.72,801.906 2859.1,820.595 2851.86,837.414C2844.62,854.234 2834.34,868.717 2821.02,880.865C2807.71,893.012 2791.59,902.357 2772.67,908.898C2753.75,915.438 2732.37,918.709 2708.54,918.709C2684.72,918.709 2663.34,915.438 2644.42,908.898C2625.5,902.357 2609.38,893.012 2596.06,880.865C2582.75,868.717 2572.47,854.234 2565.23,837.414C2557.99,820.595 2554.36,801.906 2554.36,781.349L2554.36,680.432C2554.36,659.875 2557.99,641.069 2565.23,624.016C2572.47,606.963 2582.75,592.246 2596.06,579.865C2609.38,567.484 2625.5,557.906 2644.42,551.131C2663.34,544.357 2684.72,540.97 2708.54,540.97C2732.37,540.97 2753.75,544.357 2772.67,551.131C2791.59,557.906 2807.71,567.484 2821.02,579.865C2834.34,592.246 2844.62,606.963 2851.86,624.016C2859.1,641.069 2862.72,659.875 2862.72,680.432L2862.72,781.349ZM2612.53,781.349C2612.53,807.98 2620.71,829.005 2637.06,844.423C2653.41,859.84 2677.24,867.549 2708.54,867.549C2740.31,867.549 2764.38,859.84 2780.73,844.423C2797.08,829.005 2805.26,807.98 2805.26,781.349L2805.26,680.432C2805.26,653.801 2797.08,632.543 2780.73,616.658C2764.38,600.772 2740.31,592.83 2708.54,592.83C2677.24,592.83 2653.41,600.772 2637.06,616.658C2620.71,632.543 2612.53,653.801 2612.53,680.432L2612.53,781.349Z" style="fill:white;fill-rule:nonzero;"/>
        </g>
    </g>
</svg>
